<svg xmlns="http://www.w3.org/2000/svg" aria-hidden="true" style="position:absolute;width:0;height:0;overflow:hidden">
  <defs>
    <symbol id="icon-logo" viewBox="0 0 30 32">
      <path d="M18.821 14.656l-2.173-4.977-0.474-0.329-0.555-0.177-0.752-0.202-0.882 0.379-0.588 0.328 2.222 4.978h3.203z"></path>
      <path d="M11.023 12.991l2.173 4.99 0.474 0.329 0.555 0.177 0.752 0.203 0.882-0.38 0.588-0.329-2.222-4.99h-3.202z"></path>
      <path d="M13.281 9.744l-3.374 4.876 3.374 0.036 2.438-4.912c0.171-0.503 0.707-0.21 0.954 0-1.053-1.93-2.7-0.804-3.392 0zM16.55 17.917l3.374-4.876-3.374-0.036-2.438 4.912c-0.171 0.503-0.707 0.21-0.954 0 1.053 1.93 2.7 0.804 3.392 0z"></path>
    </symbol>
    <symbol id="icon-burger" viewBox="0 0 32 32">
      <path d="M2.667 7.993c0-0.733 0.595-1.327 1.327-1.327h10.68c0.733 0 1.327 0.594 1.327 1.327s-0.594 1.327-1.327 1.327h-10.68c-0.733 0-1.327-0.594-1.327-1.327v0zM2.667 16c0-0.733 0.595-1.327 1.327-1.327h24.013c0.733 0 1.327 0.594 1.327 1.327s-0.594 1.327-1.327 1.327h-24.013c-0.733 0-1.327-0.594-1.327-1.327v0zM3.993 22.68c-0.733 0-1.327 0.594-1.327 1.327s0.594 1.327 1.327 1.327h16.013c0.733 0 1.327-0.594 1.327-1.327s-0.594-1.327-1.327-1.327h-16.013z"></path>
    </symbol>
    <symbol id="icon-x" viewBox="0 0 32 32">
      <path stroke-linejoin="round" stroke-linecap="round" stroke-miterlimit="4" stroke-width="1.7333" d="M24 8l-16 16M8 8l16 16"></path>
    </symbol>
    <symbol id="icon-chevron-right" viewBox="0 0 32 32">
      <path stroke-linejoin="round" stroke-linecap="round" stroke-miterlimit="4" stroke-width="1.7778" d="M20 24l-8-8 8-8"></path>
    </symbol>
    <symbol id="icon-chevron-left" viewBox="0 0 32 32">
      <path stroke-linejoin="round" stroke-linecap="round" stroke-miterlimit="4" stroke-width="1.7778" d="M12 24l8-8-8-8"></path>
    </symbol>
  </defs>
</svg>
